<svg xmlns="http://www.w3.org/2000/svg" viewBox="0 0 46 46">
    <path fill="#f7d4cb"
          d="M43.43 21.154c-.462-2.479-1.172-4.917-2.254-6.926-.084-.178-.255-.454-.338-.632-.33-.58-1.35-2.193-1.682-2.324-.271-.108-.612-.143-1.044-.074-.526.089-3.755.753-4.776 1.142-.874.334-1.724.576-2.62.92-3.783 1.45-7.812 3.17-10.818 5.445-.984.744-1.328.896-2.131 1.816-.27.307-.938 1.074-1.172 1.542-.371.557-.641 1.72-.306 2.534.542 1.322 2.625 1.828 4.112 2.284.254.08 2.484.49 3.33.698.331.08 6.231 1.166 6.63 1.278 1.62.448 3.169.947 4.478 1.705.994.575 1.92 1.51 2.314 2.686.132.392.146.668.162 1.113.02.519-.006.913-.132 1.262-.125.345-.21.659-.398.966-.785 1.277-1.843 2.369-2.887 3.382a38.513 38.513 0 0 1-4.91 4.036c-.73.507-1.588.934-2.414 1.314-.34.155-1.09.393-1.09.393s1.404-.177 1.973-.359c.357-.11.671-.173 1.016-.295 1.382-.483 2.684-1.013 3.876-1.661 3.56-1.94 6.064-4.468 8.193-7.85.532-.845 1.08-1.812 1.459-2.82.32-.852.71-1.744.914-2.673.123-.554.287-1.139.398-1.78.1-.575.324-2.633.324-3.427.04-.436-.083-3.036-.207-3.695zm-26.847 9.482c-.574-.667-1.292-1.223-1.99-1.766-.177-.138-.973-.72-1.177-.89-.89-.745-1.925-1.409-2.932-2.063-.984-.637-2.721-1.435-3.163-2.52-.728-1.782.833-2.654 1.747-3.487.569-.517 1.235-.893 1.87-1.353 1.261-.91 2.715-1.502 4.335-2.063.884-.307 1.951-.65 3.032-.697-.421-.426-1.991-1.38-2.266-1.588-1.72-1.29-3.83-2.202-6.057-2.937-2.152-.488-3.372-.373-3.729-.297-.356.076-.83.17-1.12.372-.352.244-.538.635-.78.993a26.398 26.398 0 0 0-1.149 1.884c-.14.252-.7 1.562-.885 1.973-.624 1.391-.982 2.954-1.327 4.615-.124.602-.164.876-.26 1.71-.071.627-.058 1.846-.033 2.605.019.551.049.95.133 1.621.081.671.21 1.826.456 2.656.835 2.835 1.39 4.72 3.359 7.405.467.629.703.993 1.076 1.47.713.908 1.588 1.653 2.431 2.433.278.258 1.048 1.084 1.49.995 1.58-.32 3.45-1.306 4.374-1.9.927-.593 1.789-1.129 2.33-1.587.85-.721 1.889-1.352 2.224-2.538.158-.565.026-1.345-.09-1.81-.344-1.4-1.097-2.304-1.899-3.236z"/>
    <path fill="#cf3942"
          d="M22.14 6.629 5.359 23.472l2.667 2.672 3.993-3.948v12.19l4.052-.008V18.174l4.009-3.991.003 20.195h4.03l.003-20.225 4.01 3.992v16.233h4.008V22.166l4.022 3.992 2.77-2.7zm2.92-3.375a2.974 2.974 0 0 1-2.963 2.984 2.974 2.974 0 0 1-2.964-2.984A2.973 2.973 0 0 1 22.097.27c1.635 0 2.962 1.335 2.962 2.984zm-9.744 8.129c0 1.648-1.325 2.984-2.961 2.984s-2.962-1.336-2.962-2.984c0-1.649 1.325-2.984 2.962-2.984s2.961 1.335 2.961 2.984zM34.832 11.383c0 1.648-1.327 2.984-2.964 2.984s-2.963-1.336-2.963-2.984a2.973 2.973 0 0 1 2.963-2.984 2.974 2.974 0 0 1 2.964 2.984z"/>
</svg>
